<svg id="图层_1" data-name="图层 1" xmlns="http://www.w3.org/2000/svg" viewBox="0 0 1080 1080"><defs><style>.cls-1{fill:#39b54a;}.cls-2{fill:#fff;}</style></defs><rect class="cls-1" x="0.5" y="0.5" width="1079" height="1079" rx="123.5"/><path d="M956,1a123,123,0,0,1,123,123V956a123,123,0,0,1-123,123H124A123,123,0,0,1,1,956V124A123,123,0,0,1,124,1H956m0-1H124A124,124,0,0,0,0,124V956a124,124,0,0,0,124,124H956a124,124,0,0,0,124-124V124A124,124,0,0,0,956,0Z"/><path class="cls-2" d="M875.59,843.56H745.18L669.12,628.25H430L354,843.56H223.56L495.24,140.75H603.92ZM642,551.06,555,303.25H544.15L457.21,551.06Z"/></svg>